<mxfile host="app.diagrams.net" modified="2022-05-24T12:48:07.257Z" agent="5.0 (Windows NT 10.0; WOW64) AppleWebKit/537.36 (KHTML, like Gecko) Chrome/101.0.4951.67 Safari/537.36" etag="S8aVaWHYYQTSm3cxzj_8" version="18.1.2" type="github" pages="8">
  <diagram id="y7-9cns_4b4RCc8xut9D" name="Overall">
    <mxGraphModel dx="2377" dy="835" grid="1" gridSize="10" guides="1" tooltips="1" connect="1" arrows="1" fold="1" page="1" pageScale="1" pageWidth="827" pageHeight="1169" math="0" shadow="0">
      <root>
        <mxCell id="0" />
        <mxCell id="1" parent="0" />
        <mxCell id="qkalv_-YpkoeOqyAzlyB-21" style="edgeStyle=none;rounded=0;orthogonalLoop=1;jettySize=auto;html=1;startArrow=none;startFill=0;" parent="1" source="qkalv_-YpkoeOqyAzlyB-1" target="qkalv_-YpkoeOqyAzlyB-20" edge="1">
          <mxGeometry relative="1" as="geometry" />
        </mxCell>
        <mxCell id="qkalv_-YpkoeOqyAzlyB-38" style="edgeStyle=none;rounded=0;orthogonalLoop=1;jettySize=auto;html=1;dashed=1;startArrow=classic;startFill=1;" parent="1" source="qkalv_-YpkoeOqyAzlyB-1" target="qkalv_-YpkoeOqyAzlyB-35" edge="1">
          <mxGeometry relative="1" as="geometry" />
        </mxCell>
        <mxCell id="qkalv_-YpkoeOqyAzlyB-1" value="BC365" style="ellipse;shape=cloud;whiteSpace=wrap;html=1;" parent="1" vertex="1">
          <mxGeometry x="30" y="130" width="120" height="80" as="geometry" />
        </mxCell>
        <mxCell id="qkalv_-YpkoeOqyAzlyB-2" value="ElbÃ¦k og Vejrup&lt;br&gt;CompanyHub" style="ellipse;shape=cloud;whiteSpace=wrap;html=1;" parent="1" vertex="1">
          <mxGeometry x="520" y="280" width="120" height="80" as="geometry" />
        </mxCell>
        <mxCell id="qkalv_-YpkoeOqyAzlyB-7" style="edgeStyle=orthogonalEdgeStyle;rounded=0;orthogonalLoop=1;jettySize=auto;html=1;" parent="1" source="qkalv_-YpkoeOqyAzlyB-3" target="qkalv_-YpkoeOqyAzlyB-4" edge="1">
          <mxGeometry relative="1" as="geometry">
            <Array as="points">
              <mxPoint x="500" y="520" />
            </Array>
          </mxGeometry>
        </mxCell>
        <mxCell id="qkalv_-YpkoeOqyAzlyB-3" value="Speedguides" style="ellipse;shape=cloud;whiteSpace=wrap;html=1;" parent="1" vertex="1">
          <mxGeometry x="440" y="350" width="120" height="80" as="geometry" />
        </mxCell>
        <mxCell id="qkalv_-YpkoeOqyAzlyB-10" style="edgeStyle=orthogonalEdgeStyle;rounded=0;orthogonalLoop=1;jettySize=auto;html=1;entryX=0.5;entryY=1;entryDx=0;entryDy=0;" parent="1" source="qkalv_-YpkoeOqyAzlyB-4" target="qkalv_-YpkoeOqyAzlyB-9" edge="1">
          <mxGeometry relative="1" as="geometry">
            <Array as="points">
              <mxPoint x="280" y="520" />
            </Array>
          </mxGeometry>
        </mxCell>
        <mxCell id="qkalv_-YpkoeOqyAzlyB-25" style="edgeStyle=none;rounded=0;orthogonalLoop=1;jettySize=auto;html=1;startArrow=none;startFill=0;" parent="1" source="qkalv_-YpkoeOqyAzlyB-4" target="qkalv_-YpkoeOqyAzlyB-24" edge="1">
          <mxGeometry relative="1" as="geometry" />
        </mxCell>
        <mxCell id="qkalv_-YpkoeOqyAzlyB-4" value="ObtonData" style="shape=cylinder3;whiteSpace=wrap;html=1;boundedLbl=1;backgroundOutline=1;size=15;" parent="1" vertex="1">
          <mxGeometry x="340" y="480" width="60" height="80" as="geometry" />
        </mxCell>
        <mxCell id="qkalv_-YpkoeOqyAzlyB-6" style="edgeStyle=orthogonalEdgeStyle;rounded=0;orthogonalLoop=1;jettySize=auto;html=1;entryX=0.943;entryY=0.563;entryDx=0;entryDy=0;entryPerimeter=0;" parent="1" source="qkalv_-YpkoeOqyAzlyB-5" target="qkalv_-YpkoeOqyAzlyB-3" edge="1">
          <mxGeometry relative="1" as="geometry" />
        </mxCell>
        <mxCell id="qkalv_-YpkoeOqyAzlyB-5" value="Actor" style="shape=umlActor;verticalLabelPosition=bottom;verticalAlign=top;html=1;outlineConnect=0;" parent="1" vertex="1">
          <mxGeometry x="700" y="360" width="30" height="60" as="geometry" />
        </mxCell>
        <mxCell id="qkalv_-YpkoeOqyAzlyB-13" style="edgeStyle=orthogonalEdgeStyle;rounded=0;orthogonalLoop=1;jettySize=auto;html=1;dashed=1;startArrow=classic;startFill=1;" parent="1" source="qkalv_-YpkoeOqyAzlyB-8" target="qkalv_-YpkoeOqyAzlyB-1" edge="1">
          <mxGeometry relative="1" as="geometry" />
        </mxCell>
        <mxCell id="qkalv_-YpkoeOqyAzlyB-17" style="edgeStyle=none;rounded=0;orthogonalLoop=1;jettySize=auto;html=1;entryX=0.34;entryY=0.023;entryDx=0;entryDy=0;entryPerimeter=0;startArrow=none;startFill=0;" parent="1" source="qkalv_-YpkoeOqyAzlyB-8" target="qkalv_-YpkoeOqyAzlyB-16" edge="1">
          <mxGeometry relative="1" as="geometry" />
        </mxCell>
        <mxCell id="qkalv_-YpkoeOqyAzlyB-8" value="Rillion" style="ellipse;shape=cloud;whiteSpace=wrap;html=1;" parent="1" vertex="1">
          <mxGeometry x="30" y="280" width="120" height="80" as="geometry" />
        </mxCell>
        <mxCell id="qkalv_-YpkoeOqyAzlyB-11" style="edgeStyle=orthogonalEdgeStyle;rounded=0;orthogonalLoop=1;jettySize=auto;html=1;startArrow=classic;startFill=1;" parent="1" source="qkalv_-YpkoeOqyAzlyB-9" target="qkalv_-YpkoeOqyAzlyB-8" edge="1">
          <mxGeometry relative="1" as="geometry" />
        </mxCell>
        <mxCell id="qkalv_-YpkoeOqyAzlyB-12" style="edgeStyle=orthogonalEdgeStyle;rounded=0;orthogonalLoop=1;jettySize=auto;html=1;" parent="1" source="qkalv_-YpkoeOqyAzlyB-9" target="qkalv_-YpkoeOqyAzlyB-1" edge="1">
          <mxGeometry relative="1" as="geometry">
            <Array as="points">
              <mxPoint x="290" y="170" />
            </Array>
          </mxGeometry>
        </mxCell>
        <mxCell id="qkalv_-YpkoeOqyAzlyB-15" style="edgeStyle=none;rounded=0;orthogonalLoop=1;jettySize=auto;html=1;startArrow=classic;startFill=1;" parent="1" source="qkalv_-YpkoeOqyAzlyB-9" target="qkalv_-YpkoeOqyAzlyB-2" edge="1">
          <mxGeometry relative="1" as="geometry">
            <Array as="points">
              <mxPoint x="440" y="320" />
            </Array>
          </mxGeometry>
        </mxCell>
        <mxCell id="qkalv_-YpkoeOqyAzlyB-9" value="Obton Proxy" style="rounded=1;whiteSpace=wrap;html=1;" parent="1" vertex="1">
          <mxGeometry x="220" y="290" width="120" height="60" as="geometry" />
        </mxCell>
        <mxCell id="qkalv_-YpkoeOqyAzlyB-18" style="edgeStyle=none;rounded=0;orthogonalLoop=1;jettySize=auto;html=1;startArrow=none;startFill=0;" parent="1" source="qkalv_-YpkoeOqyAzlyB-16" target="qkalv_-YpkoeOqyAzlyB-3" edge="1">
          <mxGeometry relative="1" as="geometry" />
        </mxCell>
        <mxCell id="qkalv_-YpkoeOqyAzlyB-16" value="Last invoice date" style="rounded=1;whiteSpace=wrap;html=1;" parent="1" vertex="1">
          <mxGeometry x="50" y="420" width="120" height="60" as="geometry" />
        </mxCell>
        <mxCell id="qkalv_-YpkoeOqyAzlyB-23" style="edgeStyle=none;rounded=0;orthogonalLoop=1;jettySize=auto;html=1;entryX=0.5;entryY=0;entryDx=0;entryDy=0;entryPerimeter=0;startArrow=none;startFill=0;" parent="1" source="qkalv_-YpkoeOqyAzlyB-20" target="qkalv_-YpkoeOqyAzlyB-4" edge="1">
          <mxGeometry relative="1" as="geometry" />
        </mxCell>
        <mxCell id="qkalv_-YpkoeOqyAzlyB-20" value="Transaktionsdata" style="rounded=1;whiteSpace=wrap;html=1;" parent="1" vertex="1">
          <mxGeometry x="310" y="40" width="120" height="60" as="geometry" />
        </mxCell>
        <mxCell id="qkalv_-YpkoeOqyAzlyB-27" style="edgeStyle=none;rounded=0;orthogonalLoop=1;jettySize=auto;html=1;startArrow=none;startFill=0;" parent="1" source="qkalv_-YpkoeOqyAzlyB-24" target="qkalv_-YpkoeOqyAzlyB-9" edge="1">
          <mxGeometry relative="1" as="geometry" />
        </mxCell>
        <mxCell id="qkalv_-YpkoeOqyAzlyB-24" value="Operations" style="ellipse;shape=cloud;whiteSpace=wrap;html=1;" parent="1" vertex="1">
          <mxGeometry x="180" y="630" width="120" height="80" as="geometry" />
        </mxCell>
        <mxCell id="qkalv_-YpkoeOqyAzlyB-31" style="edgeStyle=none;rounded=0;orthogonalLoop=1;jettySize=auto;html=1;entryX=0.8;entryY=0.8;entryDx=0;entryDy=0;entryPerimeter=0;startArrow=none;startFill=0;" parent="1" source="qkalv_-YpkoeOqyAzlyB-30" target="qkalv_-YpkoeOqyAzlyB-24" edge="1">
          <mxGeometry relative="1" as="geometry" />
        </mxCell>
        <mxCell id="qkalv_-YpkoeOqyAzlyB-30" value="Actor" style="shape=umlActor;verticalLabelPosition=bottom;verticalAlign=top;html=1;outlineConnect=0;" parent="1" vertex="1">
          <mxGeometry x="460" y="670" width="30" height="60" as="geometry" />
        </mxCell>
        <mxCell id="qkalv_-YpkoeOqyAzlyB-33" style="edgeStyle=none;rounded=0;orthogonalLoop=1;jettySize=auto;html=1;startArrow=none;startFill=0;" parent="1" source="qkalv_-YpkoeOqyAzlyB-32" target="qkalv_-YpkoeOqyAzlyB-1" edge="1">
          <mxGeometry relative="1" as="geometry" />
        </mxCell>
        <mxCell id="qkalv_-YpkoeOqyAzlyB-32" value="Actor" style="shape=umlActor;verticalLabelPosition=bottom;verticalAlign=top;html=1;outlineConnect=0;" parent="1" vertex="1">
          <mxGeometry x="80" y="10" width="30" height="60" as="geometry" />
        </mxCell>
        <mxCell id="qkalv_-YpkoeOqyAzlyB-37" style="edgeStyle=none;rounded=0;orthogonalLoop=1;jettySize=auto;html=1;entryX=0.8;entryY=0.8;entryDx=0;entryDy=0;entryPerimeter=0;startArrow=classic;startFill=1;dashed=1;" parent="1" source="qkalv_-YpkoeOqyAzlyB-35" target="qkalv_-YpkoeOqyAzlyB-36" edge="1">
          <mxGeometry relative="1" as="geometry" />
        </mxCell>
        <mxCell id="qkalv_-YpkoeOqyAzlyB-35" value="TIS" style="ellipse;shape=cloud;whiteSpace=wrap;html=1;fillColor=#fff2cc;strokeColor=#d6b656;" parent="1" vertex="1">
          <mxGeometry x="-160" y="240" width="120" height="80" as="geometry" />
        </mxCell>
        <mxCell id="qkalv_-YpkoeOqyAzlyB-36" value="Banks" style="ellipse;shape=cloud;whiteSpace=wrap;html=1;" parent="1" vertex="1">
          <mxGeometry x="-350" y="100" width="120" height="80" as="geometry" />
        </mxCell>
      </root>
    </mxGraphModel>
  </diagram>
  <diagram id="eBYu1IKp9fvz8-o1BrNX" name="UpsertCompany">
    <mxGraphModel dx="1550" dy="835" grid="1" gridSize="10" guides="1" tooltips="1" connect="1" arrows="1" fold="1" page="1" pageScale="1" pageWidth="827" pageHeight="1169" math="0" shadow="0">
      <root>
        <mxCell id="0" />
        <mxCell id="1" parent="0" />
        <mxCell id="Qhi-izQsGSpgLhHnQKgI-36" style="edgeStyle=orthogonalEdgeStyle;rounded=0;orthogonalLoop=1;jettySize=auto;html=1;entryX=0;entryY=0.5;entryDx=0;entryDy=0;entryPerimeter=0;" parent="1" source="Qhi-izQsGSpgLhHnQKgI-3" target="Qhi-izQsGSpgLhHnQKgI-35" edge="1">
          <mxGeometry relative="1" as="geometry" />
        </mxCell>
        <mxCell id="Qhi-izQsGSpgLhHnQKgI-3" value="" style="points=[[0.145,0.145,0],[0.5,0,0],[0.855,0.145,0],[1,0.5,0],[0.855,0.855,0],[0.5,1,0],[0.145,0.855,0],[0,0.5,0]];shape=mxgraph.bpmn.event;html=1;verticalLabelPosition=bottom;labelBackgroundColor=#ffffff;verticalAlign=top;align=center;perimeter=ellipsePerimeter;outlineConnect=0;aspect=fixed;outline=eventNonint;symbol=timer;" parent="1" vertex="1">
          <mxGeometry x="80" y="70" width="50" height="50" as="geometry" />
        </mxCell>
        <mxCell id="Qhi-izQsGSpgLhHnQKgI-9" value="YES" style="edgeStyle=orthogonalEdgeStyle;rounded=0;orthogonalLoop=1;jettySize=auto;html=1;" parent="1" source="Qhi-izQsGSpgLhHnQKgI-35" target="Qhi-izQsGSpgLhHnQKgI-8" edge="1">
          <mxGeometry relative="1" as="geometry">
            <mxPoint x="269.8799999999999" y="95.10000000000002" as="sourcePoint" />
          </mxGeometry>
        </mxCell>
        <mxCell id="Qhi-izQsGSpgLhHnQKgI-11" value="" style="edgeStyle=orthogonalEdgeStyle;rounded=0;orthogonalLoop=1;jettySize=auto;html=1;entryX=0;entryY=0.5;entryDx=0;entryDy=0;entryPerimeter=0;" parent="1" source="Qhi-izQsGSpgLhHnQKgI-8" target="Qhi-izQsGSpgLhHnQKgI-40" edge="1">
          <mxGeometry relative="1" as="geometry">
            <mxPoint x="560" y="110" as="targetPoint" />
          </mxGeometry>
        </mxCell>
        <mxCell id="Qhi-izQsGSpgLhHnQKgI-8" value="Create BC365 JSON from&amp;nbsp;&lt;span style=&quot;background-color: rgb(248, 249, 250);&quot;&gt;[ObtonData].[LINK].[tblCompanies] Data&lt;/span&gt;" style="rounded=1;whiteSpace=wrap;html=1;verticalAlign=top;labelBackgroundColor=#ffffff;spacingBottom=0;spacingTop=0;" parent="1" vertex="1">
          <mxGeometry x="320" y="57.5" width="120" height="75" as="geometry" />
        </mxCell>
        <UserObject label="Has &quot;Last Modified&quot; for Company in&amp;nbsp;&lt;br&gt;&lt;span style=&quot;background-color: rgb(248, 249, 250);&quot;&gt;[ObtonData].[LINK].[tblCompanies] &lt;br&gt;changed since last run?&lt;br&gt;&lt;br&gt;(links to technical drawing)&lt;br&gt;&lt;/span&gt;" link="data:page/id,mzLPGK-CXtj6J6ogJvd4" id="Qhi-izQsGSpgLhHnQKgI-35">
          <mxCell style="points=[[0.25,0.25,0],[0.5,0,0],[0.75,0.25,0],[1,0.5,0],[0.75,0.75,0],[0.5,1,0],[0.25,0.75,0],[0,0.5,0]];shape=mxgraph.bpmn.gateway2;html=1;verticalLabelPosition=bottom;labelBackgroundColor=#ffffff;verticalAlign=top;align=center;perimeter=rhombusPerimeter;outlineConnect=0;outline=none;symbol=none;" parent="1" vertex="1">
            <mxGeometry x="180" y="70" width="50" height="50" as="geometry" />
          </mxCell>
        </UserObject>
        <mxCell id="Qhi-izQsGSpgLhHnQKgI-37" value="Saves Upsert Action in a manner that allows it to be rerun." style="points=[[0.25,0,0],[0.5,0,0],[0.75,0,0],[1,0.25,0],[1,0.5,0],[1,0.75,0],[0.75,1,0],[0.5,1,0],[0.25,1,0],[0,0.75,0],[0,0.5,0],[0,0.25,0]];shape=mxgraph.bpmn.task;whiteSpace=wrap;rectStyle=rounded;size=10;taskMarker=abstract;isLoopSub=1;" parent="1" vertex="1">
          <mxGeometry x="500" y="160" width="120" height="80" as="geometry" />
        </mxCell>
        <mxCell id="Qhi-izQsGSpgLhHnQKgI-42" value="" style="edgeStyle=orthogonalEdgeStyle;rounded=0;orthogonalLoop=1;jettySize=auto;html=1;" parent="1" source="Qhi-izQsGSpgLhHnQKgI-40" target="Qhi-izQsGSpgLhHnQKgI-37" edge="1">
          <mxGeometry relative="1" as="geometry" />
        </mxCell>
        <mxCell id="Qhi-izQsGSpgLhHnQKgI-46" style="edgeStyle=orthogonalEdgeStyle;rounded=0;orthogonalLoop=1;jettySize=auto;html=1;entryX=0;entryY=0.5;entryDx=0;entryDy=0;entryPerimeter=0;" parent="1" source="Qhi-izQsGSpgLhHnQKgI-40" target="Qhi-izQsGSpgLhHnQKgI-43" edge="1">
          <mxGeometry relative="1" as="geometry" />
        </mxCell>
        <mxCell id="Qhi-izQsGSpgLhHnQKgI-40" value="Upsert Company through helios-api-cardea-bc365." style="points=[[0.25,0,0],[0.5,0,0],[0.75,0,0],[1,0.25,0],[1,0.5,0],[1,0.75,0],[0.75,1,0],[0.5,1,0],[0.25,1,0],[0,0.75,0],[0,0.5,0],[0,0.25,0]];shape=mxgraph.bpmn.task;whiteSpace=wrap;rectStyle=rounded;size=10;taskMarker=send;" parent="1" vertex="1">
          <mxGeometry x="500" y="55" width="120" height="80" as="geometry" />
        </mxCell>
        <mxCell id="Qhi-izQsGSpgLhHnQKgI-45" style="edgeStyle=orthogonalEdgeStyle;rounded=0;orthogonalLoop=1;jettySize=auto;html=1;entryX=0;entryY=0.5;entryDx=0;entryDy=0;entryPerimeter=0;" parent="1" source="Qhi-izQsGSpgLhHnQKgI-43" target="Qhi-izQsGSpgLhHnQKgI-44" edge="1">
          <mxGeometry relative="1" as="geometry" />
        </mxCell>
        <mxCell id="Qhi-izQsGSpgLhHnQKgI-47" value="YES" style="edgeLabel;html=1;align=center;verticalAlign=middle;resizable=0;points=[];" parent="Qhi-izQsGSpgLhHnQKgI-45" vertex="1" connectable="0">
          <mxGeometry x="-0.184" y="-2" relative="1" as="geometry">
            <mxPoint as="offset" />
          </mxGeometry>
        </mxCell>
        <mxCell id="Qhi-izQsGSpgLhHnQKgI-54" value="NO" style="edgeStyle=orthogonalEdgeStyle;rounded=0;orthogonalLoop=1;jettySize=auto;html=1;entryX=0;entryY=0;entryDx=25;entryDy=0;entryPerimeter=0;" parent="1" source="Qhi-izQsGSpgLhHnQKgI-43" target="Qhi-izQsGSpgLhHnQKgI-53" edge="1">
          <mxGeometry relative="1" as="geometry" />
        </mxCell>
        <mxCell id="Qhi-izQsGSpgLhHnQKgI-43" value="Does Upsert succeed?" style="points=[[0.25,0.25,0],[0.5,0,0],[0.75,0.25,0],[1,0.5,0],[0.75,0.75,0],[0.5,1,0],[0.25,0.75,0],[0,0.5,0]];shape=mxgraph.bpmn.gateway2;html=1;verticalLabelPosition=bottom;labelBackgroundColor=#ffffff;verticalAlign=top;align=center;perimeter=rhombusPerimeter;outlineConnect=0;outline=none;symbol=none;" parent="1" vertex="1">
          <mxGeometry x="680" y="70" width="50" height="50" as="geometry" />
        </mxCell>
        <mxCell id="Qhi-izQsGSpgLhHnQKgI-44" value="" style="points=[[0.145,0.145,0],[0.5,0,0],[0.855,0.145,0],[1,0.5,0],[0.855,0.855,0],[0.5,1,0],[0.145,0.855,0],[0,0.5,0]];shape=mxgraph.bpmn.event;html=1;verticalLabelPosition=bottom;labelBackgroundColor=#ffffff;verticalAlign=top;align=center;perimeter=ellipsePerimeter;outlineConnect=0;aspect=fixed;outline=end;symbol=terminate;" parent="1" vertex="1">
          <mxGeometry x="790" y="70" width="50" height="50" as="geometry" />
        </mxCell>
        <mxCell id="Qhi-izQsGSpgLhHnQKgI-55" style="edgeStyle=orthogonalEdgeStyle;rounded=0;orthogonalLoop=1;jettySize=auto;html=1;entryX=0.5;entryY=1;entryDx=0;entryDy=0;entryPerimeter=0;" parent="1" source="Qhi-izQsGSpgLhHnQKgI-53" target="Qhi-izQsGSpgLhHnQKgI-44" edge="1">
          <mxGeometry relative="1" as="geometry" />
        </mxCell>
        <mxCell id="Qhi-izQsGSpgLhHnQKgI-53" value="Error List" style="shape=mxgraph.bpmn.data;labelPosition=center;verticalLabelPosition=bottom;align=center;verticalAlign=top;whiteSpace=wrap;size=15;html=1;bpmnTransferType=input;isCollection=1;" parent="1" vertex="1">
          <mxGeometry x="680" y="210" width="40" height="60" as="geometry" />
        </mxCell>
      </root>
    </mxGraphModel>
  </diagram>
  <diagram id="mzLPGK-CXtj6J6ogJvd4" name="UpsertcompanyDetailed">
    <mxGraphModel dx="1550" dy="835" grid="1" gridSize="10" guides="1" tooltips="1" connect="1" arrows="1" fold="1" page="1" pageScale="1" pageWidth="827" pageHeight="1169" math="0" shadow="0">
      <root>
        <mxCell id="0" />
        <mxCell id="1" parent="0" />
        <mxCell id="QvZDp7i3wGxCNJ1xNii9-4" value="" style="edgeStyle=orthogonalEdgeStyle;rounded=0;orthogonalLoop=1;jettySize=auto;html=1;" parent="1" source="nAkkPcoMvbigN3XRVYpZ-1" target="QvZDp7i3wGxCNJ1xNii9-3" edge="1">
          <mxGeometry relative="1" as="geometry" />
        </mxCell>
        <mxCell id="nAkkPcoMvbigN3XRVYpZ-1" value="Get Companies changed since LastUpdated that have data inÂ [Companies_BC365Name]" style="points=[[0.25,0,0],[0.5,0,0],[0.75,0,0],[1,0.25,0],[1,0.5,0],[1,0.75,0],[0.75,1,0],[0.5,1,0],[0.25,1,0],[0,0.75,0],[0,0.5,0],[0,0.25,0]];shape=mxgraph.bpmn.task;whiteSpace=wrap;rectStyle=rounded;size=10;taskMarker=service;" parent="1" vertex="1">
          <mxGeometry x="310" y="170" width="170" height="100" as="geometry" />
        </mxCell>
        <mxCell id="nAkkPcoMvbigN3XRVYpZ-5" style="edgeStyle=orthogonalEdgeStyle;rounded=0;orthogonalLoop=1;jettySize=auto;html=1;" parent="1" source="nAkkPcoMvbigN3XRVYpZ-2" target="nAkkPcoMvbigN3XRVYpZ-1" edge="1">
          <mxGeometry relative="1" as="geometry" />
        </mxCell>
        <mxCell id="nAkkPcoMvbigN3XRVYpZ-2" value="helios-api-core" style="ellipse;shape=cloud;whiteSpace=wrap;html=1;" parent="1" vertex="1">
          <mxGeometry x="120" y="180" width="120" height="80" as="geometry" />
        </mxCell>
        <mxCell id="nAkkPcoMvbigN3XRVYpZ-4" style="edgeStyle=orthogonalEdgeStyle;rounded=0;orthogonalLoop=1;jettySize=auto;html=1;startArrow=classic;startFill=1;" parent="1" source="nAkkPcoMvbigN3XRVYpZ-3" target="nAkkPcoMvbigN3XRVYpZ-2" edge="1">
          <mxGeometry relative="1" as="geometry" />
        </mxCell>
        <mxCell id="nAkkPcoMvbigN3XRVYpZ-3" value="ObtonData" style="shape=cylinder3;whiteSpace=wrap;html=1;boundedLbl=1;backgroundOutline=1;size=15;" parent="1" vertex="1">
          <mxGeometry x="150" y="380" width="60" height="80" as="geometry" />
        </mxCell>
        <mxCell id="QvZDp7i3wGxCNJ1xNii9-2" style="edgeStyle=orthogonalEdgeStyle;rounded=0;orthogonalLoop=1;jettySize=auto;html=1;entryX=0.5;entryY=0;entryDx=0;entryDy=0;entryPerimeter=0;" parent="1" source="QvZDp7i3wGxCNJ1xNii9-1" target="nAkkPcoMvbigN3XRVYpZ-1" edge="1">
          <mxGeometry relative="1" as="geometry" />
        </mxCell>
        <UserObject label="" link="data:page/id,eBYu1IKp9fvz8-o1BrNX" id="QvZDp7i3wGxCNJ1xNii9-1">
          <mxCell style="points=[[0.145,0.145,0],[0.5,0,0],[0.855,0.145,0],[1,0.5,0],[0.855,0.855,0],[0.5,1,0],[0.145,0.855,0],[0,0.5,0]];shape=mxgraph.bpmn.event;html=1;verticalLabelPosition=bottom;labelBackgroundColor=#ffffff;verticalAlign=top;align=center;perimeter=ellipsePerimeter;outlineConnect=0;aspect=fixed;outline=eventNonint;symbol=timer;" parent="1" vertex="1">
            <mxGeometry x="370" y="40" width="50" height="50" as="geometry" />
          </mxCell>
        </UserObject>
        <mxCell id="QvZDp7i3wGxCNJ1xNii9-5" style="edgeStyle=orthogonalEdgeStyle;rounded=0;orthogonalLoop=1;jettySize=auto;html=1;" parent="1" source="QvZDp7i3wGxCNJ1xNii9-3" target="nAkkPcoMvbigN3XRVYpZ-2" edge="1">
          <mxGeometry relative="1" as="geometry">
            <Array as="points">
              <mxPoint x="570" y="150" />
              <mxPoint x="180" y="150" />
            </Array>
          </mxGeometry>
        </mxCell>
        <mxCell id="ewv9RbarIs6J1x1zWbX8-2" style="edgeStyle=orthogonalEdgeStyle;rounded=0;orthogonalLoop=1;jettySize=auto;html=1;startArrow=none;startFill=0;" parent="1" source="QvZDp7i3wGxCNJ1xNii9-3" target="ewv9RbarIs6J1x1zWbX8-1" edge="1">
          <mxGeometry relative="1" as="geometry" />
        </mxCell>
        <mxCell id="QvZDp7i3wGxCNJ1xNii9-3" value="Compare SpeedGuide Company with Company in UpsertedCompanies List" style="points=[[0.25,0,0],[0.5,0,0],[0.75,0,0],[1,0.25,0],[1,0.5,0],[1,0.75,0],[0.75,1,0],[0.5,1,0],[0.25,1,0],[0,0.75,0],[0,0.5,0],[0,0.25,0]];shape=mxgraph.bpmn.task;whiteSpace=wrap;rectStyle=rounded;size=10;taskMarker=service;" parent="1" vertex="1">
          <mxGeometry x="510" y="170" width="120" height="100" as="geometry" />
        </mxCell>
        <mxCell id="Fv4QES26am2GKzGL1rjv-1" style="edgeStyle=orthogonalEdgeStyle;rounded=0;orthogonalLoop=1;jettySize=auto;html=1;entryX=0.8;entryY=0.8;entryDx=0;entryDy=0;entryPerimeter=0;" parent="1" source="QvZDp7i3wGxCNJ1xNii9-6" target="nAkkPcoMvbigN3XRVYpZ-2" edge="1">
          <mxGeometry relative="1" as="geometry" />
        </mxCell>
        <mxCell id="Fv4QES26am2GKzGL1rjv-3" value="" style="edgeStyle=orthogonalEdgeStyle;rounded=0;orthogonalLoop=1;jettySize=auto;html=1;startArrow=none;startFill=0;" parent="1" source="QvZDp7i3wGxCNJ1xNii9-6" target="Fv4QES26am2GKzGL1rjv-2" edge="1">
          <mxGeometry relative="1" as="geometry" />
        </mxCell>
        <mxCell id="QvZDp7i3wGxCNJ1xNii9-6" value="Update Company in UpsertedCompanies List" style="points=[[0.25,0,0],[0.5,0,0],[0.75,0,0],[1,0.25,0],[1,0.5,0],[1,0.75,0],[0.75,1,0],[0.5,1,0],[0.25,1,0],[0,0.75,0],[0,0.5,0],[0,0.25,0]];shape=mxgraph.bpmn.task;whiteSpace=wrap;rectStyle=rounded;size=10;taskMarker=service;" parent="1" vertex="1">
          <mxGeometry x="700" y="350" width="120" height="80" as="geometry" />
        </mxCell>
        <mxCell id="a645LF_B6A35OJoMUHM9-3" style="edgeStyle=orthogonalEdgeStyle;rounded=0;orthogonalLoop=1;jettySize=auto;html=1;entryX=0.5;entryY=1;entryDx=0;entryDy=0;entryPerimeter=0;startArrow=none;startFill=0;" parent="1" source="Fv4QES26am2GKzGL1rjv-2" target="a645LF_B6A35OJoMUHM9-1" edge="1">
          <mxGeometry relative="1" as="geometry" />
        </mxCell>
        <mxCell id="Fv4QES26am2GKzGL1rjv-2" value="Post Company to company Hub" style="points=[[0.25,0,0],[0.5,0,0],[0.75,0,0],[1,0.25,0],[1,0.5,0],[1,0.75,0],[0.75,1,0],[0.5,1,0],[0.25,1,0],[0,0.75,0],[0,0.5,0],[0,0.25,0]];shape=mxgraph.bpmn.task;whiteSpace=wrap;rectStyle=rounded;size=10;taskMarker=service;" parent="1" vertex="1">
          <mxGeometry x="880" y="350" width="120" height="80" as="geometry" />
        </mxCell>
        <mxCell id="ewv9RbarIs6J1x1zWbX8-4" value="YES" style="edgeStyle=orthogonalEdgeStyle;rounded=0;orthogonalLoop=1;jettySize=auto;html=1;entryX=0.5;entryY=0;entryDx=0;entryDy=0;entryPerimeter=0;startArrow=none;startFill=0;" parent="1" source="ewv9RbarIs6J1x1zWbX8-1" target="QvZDp7i3wGxCNJ1xNii9-6" edge="1">
          <mxGeometry relative="1" as="geometry" />
        </mxCell>
        <mxCell id="a645LF_B6A35OJoMUHM9-2" style="edgeStyle=orthogonalEdgeStyle;rounded=0;orthogonalLoop=1;jettySize=auto;html=1;entryX=0;entryY=0.5;entryDx=0;entryDy=0;entryPerimeter=0;startArrow=none;startFill=0;" parent="1" source="ewv9RbarIs6J1x1zWbX8-1" target="a645LF_B6A35OJoMUHM9-1" edge="1">
          <mxGeometry relative="1" as="geometry" />
        </mxCell>
        <UserObject label="Are there relevant changes?" id="ewv9RbarIs6J1x1zWbX8-1">
          <mxCell style="points=[[0.25,0.25,0],[0.5,0,0],[0.75,0.25,0],[1,0.5,0],[0.75,0.75,0],[0.5,1,0],[0.25,0.75,0],[0,0.5,0]];shape=mxgraph.bpmn.gateway2;html=1;verticalLabelPosition=bottom;labelBackgroundColor=#ffffff;verticalAlign=top;align=center;perimeter=rhombusPerimeter;outlineConnect=0;outline=none;symbol=none;" parent="1" vertex="1">
            <mxGeometry x="735" y="195" width="50" height="50" as="geometry" />
          </mxCell>
        </UserObject>
        <mxCell id="a645LF_B6A35OJoMUHM9-1" value="" style="points=[[0.145,0.145,0],[0.5,0,0],[0.855,0.145,0],[1,0.5,0],[0.855,0.855,0],[0.5,1,0],[0.145,0.855,0],[0,0.5,0]];shape=mxgraph.bpmn.event;html=1;verticalLabelPosition=bottom;labelBackgroundColor=#ffffff;verticalAlign=top;align=center;perimeter=ellipsePerimeter;outlineConnect=0;aspect=fixed;outline=end;symbol=terminate;" parent="1" vertex="1">
          <mxGeometry x="915" y="195" width="50" height="50" as="geometry" />
        </mxCell>
      </root>
    </mxGraphModel>
  </diagram>
  <diagram id="UUSFPpKCau6wvB8x1N02" name="Upsert Vendor">
    <mxGraphModel dx="2377" dy="835" grid="1" gridSize="10" guides="1" tooltips="1" connect="1" arrows="1" fold="1" page="1" pageScale="1" pageWidth="827" pageHeight="1169" math="0" shadow="0">
      <root>
        <mxCell id="0" />
        <mxCell id="1" parent="0" />
        <mxCell id="7FqZuLI1-bhy2s3xonyL-5" style="edgeStyle=orthogonalEdgeStyle;rounded=0;orthogonalLoop=1;jettySize=auto;html=1;entryX=0.5;entryY=0;entryDx=0;entryDy=0;entryPerimeter=0;exitX=0.5;exitY=1;exitDx=0;exitDy=0;exitPerimeter=0;" parent="1" source="e82Qpmx4ZBwwxdqTQCld-1" target="TzqbFhufuDNcVA_zZ5Xj-1" edge="1">
          <mxGeometry relative="1" as="geometry" />
        </mxCell>
        <mxCell id="7FqZuLI1-bhy2s3xonyL-6" value="How is non approved filtered?" style="edgeLabel;html=1;align=center;verticalAlign=middle;resizable=0;points=[];" parent="7FqZuLI1-bhy2s3xonyL-5" vertex="1" connectable="0">
          <mxGeometry x="-0.1833" y="1" relative="1" as="geometry">
            <mxPoint as="offset" />
          </mxGeometry>
        </mxCell>
        <mxCell id="ozIcgDwb976uFlebvAfk-2" style="edgeStyle=orthogonalEdgeStyle;rounded=0;orthogonalLoop=1;jettySize=auto;html=1;entryX=0.5;entryY=0;entryDx=0;entryDy=0;entryPerimeter=0;" parent="1" source="yms86Scg9fnt6qly7rgQ-3" target="ozIcgDwb976uFlebvAfk-1" edge="1">
          <mxGeometry relative="1" as="geometry" />
        </mxCell>
        <UserObject label="Create Vendor on BC365 Standard API&#xa;(Documentation linked)" link="https://docs.microsoft.com/en-us/dynamics365/business-central/dev-itpro/api-reference/v2.0/api/dynamics_vendor_create" linkTarget="_blank" id="yms86Scg9fnt6qly7rgQ-3">
          <mxCell style="points=[[0.25,0,0],[0.5,0,0],[0.75,0,0],[1,0.25,0],[1,0.5,0],[1,0.75,0],[0.75,1,0],[0.5,1,0],[0.25,1,0],[0,0.75,0],[0,0.5,0],[0,0.25,0]];shape=mxgraph.bpmn.task;whiteSpace=wrap;rectStyle=rounded;size=10;taskMarker=send;fillColor=#ffe6cc;strokeColor=#d79b00;" parent="1" vertex="1">
            <mxGeometry x="480" y="262.5" width="140" height="95" as="geometry" />
          </mxCell>
        </UserObject>
        <mxCell id="yms86Scg9fnt6qly7rgQ-10" style="edgeStyle=orthogonalEdgeStyle;rounded=0;orthogonalLoop=1;jettySize=auto;html=1;entryX=0;entryY=0.5;entryDx=0;entryDy=0;entryPerimeter=0;exitX=1;exitY=0.5;exitDx=0;exitDy=0;exitPerimeter=0;" parent="1" source="6PUvuGZ2wXyR1hlxx6MD-3" target="yms86Scg9fnt6qly7rgQ-3" edge="1">
          <mxGeometry relative="1" as="geometry" />
        </mxCell>
        <mxCell id="yms86Scg9fnt6qly7rgQ-11" value="NO" style="edgeLabel;html=1;align=center;verticalAlign=middle;resizable=0;points=[];" parent="yms86Scg9fnt6qly7rgQ-10" vertex="1" connectable="0">
          <mxGeometry x="-0.075" y="1" relative="1" as="geometry">
            <mxPoint as="offset" />
          </mxGeometry>
        </mxCell>
        <mxCell id="yms86Scg9fnt6qly7rgQ-13" value="" style="edgeStyle=orthogonalEdgeStyle;rounded=0;orthogonalLoop=1;jettySize=auto;html=1;exitX=0.5;exitY=1;exitDx=0;exitDy=0;exitPerimeter=0;entryX=0;entryY=0.5;entryDx=0;entryDy=0;entryPerimeter=0;" parent="1" source="6PUvuGZ2wXyR1hlxx6MD-3" target="6PUvuGZ2wXyR1hlxx6MD-8" edge="1">
          <mxGeometry relative="1" as="geometry" />
        </mxCell>
        <mxCell id="yms86Scg9fnt6qly7rgQ-14" value="YES" style="edgeLabel;html=1;align=center;verticalAlign=middle;resizable=0;points=[];" parent="yms86Scg9fnt6qly7rgQ-13" vertex="1" connectable="0">
          <mxGeometry x="-0.1625" y="-4" relative="1" as="geometry">
            <mxPoint as="offset" />
          </mxGeometry>
        </mxCell>
        <mxCell id="6PUvuGZ2wXyR1hlxx6MD-7" style="edgeStyle=orthogonalEdgeStyle;rounded=0;orthogonalLoop=1;jettySize=auto;html=1;" parent="1" source="jSZsAHG0JFHl4_oasb05-1" target="TzqbFhufuDNcVA_zZ5Xj-6" edge="1">
          <mxGeometry relative="1" as="geometry" />
        </mxCell>
        <mxCell id="jSZsAHG0JFHl4_oasb05-1" value="Data from multiple tables are likely to be needed" style="whiteSpace=wrap;html=1;fillColor=#f8cecc;strokeColor=#b85450;" parent="1" vertex="1">
          <mxGeometry x="205" y="130" width="120" height="60" as="geometry" />
        </mxCell>
        <mxCell id="e82Qpmx4ZBwwxdqTQCld-1" value="Company Management approves Vendor (four eyes) in Sharepoint" style="points=[[0.25,0,0],[0.5,0,0],[0.75,0,0],[1,0.25,0],[1,0.5,0],[1,0.75,0],[0.75,1,0],[0.5,1,0],[0.25,1,0],[0,0.75,0],[0,0.5,0],[0,0.25,0]];shape=mxgraph.bpmn.task;whiteSpace=wrap;rectStyle=rounded;size=10;bpmnShapeType=call;taskMarker=manual;fillColor=#f8cecc;strokeColor=#b85450;" parent="1" vertex="1">
          <mxGeometry x="-155" y="140" width="120" height="80" as="geometry" />
        </mxCell>
        <mxCell id="TzqbFhufuDNcVA_zZ5Xj-2" style="edgeStyle=orthogonalEdgeStyle;rounded=0;orthogonalLoop=1;jettySize=auto;html=1;" parent="1" source="Dciv_7-Y5oNdf-wYMfal-1" target="TzqbFhufuDNcVA_zZ5Xj-1" edge="1">
          <mxGeometry relative="1" as="geometry" />
        </mxCell>
        <mxCell id="Dciv_7-Y5oNdf-wYMfal-1" value="" style="points=[[0.145,0.145,0],[0.5,0,0],[0.855,0.145,0],[1,0.5,0],[0.855,0.855,0],[0.5,1,0],[0.145,0.855,0],[0,0.5,0]];shape=mxgraph.bpmn.event;html=1;verticalLabelPosition=bottom;labelBackgroundColor=#ffffff;verticalAlign=top;align=center;perimeter=ellipsePerimeter;outlineConnect=0;aspect=fixed;outline=eventNonint;symbol=timer;" parent="1" vertex="1">
          <mxGeometry x="-230" y="284.5" width="50" height="50" as="geometry" />
        </mxCell>
        <mxCell id="TzqbFhufuDNcVA_zZ5Xj-4" style="edgeStyle=orthogonalEdgeStyle;rounded=0;orthogonalLoop=1;jettySize=auto;html=1;" parent="1" source="TzqbFhufuDNcVA_zZ5Xj-1" target="TzqbFhufuDNcVA_zZ5Xj-3" edge="1">
          <mxGeometry relative="1" as="geometry" />
        </mxCell>
        <mxCell id="TzqbFhufuDNcVA_zZ5Xj-5" value="YES" style="edgeLabel;html=1;align=center;verticalAlign=middle;resizable=0;points=[];" parent="TzqbFhufuDNcVA_zZ5Xj-4" vertex="1" connectable="0">
          <mxGeometry x="-0.1508" y="1" relative="1" as="geometry">
            <mxPoint as="offset" />
          </mxGeometry>
        </mxCell>
        <mxCell id="TzqbFhufuDNcVA_zZ5Xj-1" value="Has &quot;Last Modified&quot; for Vendors in&amp;nbsp;&lt;br&gt;&lt;span style=&quot;background-color: rgb(248, 249, 250);&quot;&gt;ObtonData].[LINK].[tblVendors]&lt;/span&gt;&lt;span style=&quot;background-color: rgb(248, 249, 250);&quot;&gt;&lt;br&gt;changed since last run?&lt;/span&gt;" style="points=[[0.25,0.25,0],[0.5,0,0],[0.75,0.25,0],[1,0.5,0],[0.75,0.75,0],[0.5,1,0],[0.25,0.75,0],[0,0.5,0]];shape=mxgraph.bpmn.gateway2;html=1;verticalLabelPosition=bottom;labelBackgroundColor=#ffffff;verticalAlign=top;align=center;perimeter=rhombusPerimeter;outlineConnect=0;outline=none;symbol=none;" parent="1" vertex="1">
          <mxGeometry x="-120" y="285" width="50" height="50" as="geometry" />
        </mxCell>
        <mxCell id="TzqbFhufuDNcVA_zZ5Xj-7" style="edgeStyle=orthogonalEdgeStyle;rounded=0;orthogonalLoop=1;jettySize=auto;html=1;entryX=0;entryY=0.5;entryDx=0;entryDy=0;entryPerimeter=0;" parent="1" source="TzqbFhufuDNcVA_zZ5Xj-3" target="TzqbFhufuDNcVA_zZ5Xj-6" edge="1">
          <mxGeometry relative="1" as="geometry" />
        </mxCell>
        <mxCell id="TzqbFhufuDNcVA_zZ5Xj-3" value="Find the Tenant where the MasterCompany is located" style="points=[[0.25,0,0],[0.5,0,0],[0.75,0,0],[1,0.25,0],[1,0.5,0],[1,0.75,0],[0.75,1,0],[0.5,1,0],[0.25,1,0],[0,0.75,0],[0,0.5,0],[0,0.25,0]];shape=mxgraph.bpmn.task;whiteSpace=wrap;rectStyle=rounded;size=10;taskMarker=service;" parent="1" vertex="1">
          <mxGeometry x="20" y="269.5" width="120" height="80" as="geometry" />
        </mxCell>
        <mxCell id="6PUvuGZ2wXyR1hlxx6MD-2" style="edgeStyle=orthogonalEdgeStyle;rounded=0;orthogonalLoop=1;jettySize=auto;html=1;entryX=0.5;entryY=0;entryDx=0;entryDy=0;entryPerimeter=0;" parent="1" source="TzqbFhufuDNcVA_zZ5Xj-6" target="6PUvuGZ2wXyR1hlxx6MD-1" edge="1">
          <mxGeometry relative="1" as="geometry" />
        </mxCell>
        <mxCell id="6PUvuGZ2wXyR1hlxx6MD-9" style="edgeStyle=orthogonalEdgeStyle;rounded=0;orthogonalLoop=1;jettySize=auto;html=1;" parent="1" source="TzqbFhufuDNcVA_zZ5Xj-6" target="6PUvuGZ2wXyR1hlxx6MD-3" edge="1">
          <mxGeometry relative="1" as="geometry" />
        </mxCell>
        <mxCell id="TzqbFhufuDNcVA_zZ5Xj-6" value="If there is more than one Tenant assosiated with the &quot;country code&quot; the Company Hub functionality from Elbek-Vejrup will &quot;replicate&quot; the data out from the MasterCompany on the &quot;Main&quot; Tenant" style="points=[[0.25,0,0],[0.5,0,0],[0.75,0,0],[1,0.25,0],[1,0.5,0],[1,0.75,0],[0.75,1,0],[0.5,1,0],[0.25,1,0],[0,0.75,0],[0,0.5,0],[0,0.25,0]];shape=mxgraph.bpmn.task;whiteSpace=wrap;rectStyle=rounded;size=10;taskMarker=abstract;bpmnShapeType=subprocess;isLoopSub=1;outline=eventInt;symbol=conditional;" parent="1" vertex="1">
          <mxGeometry x="180" y="247" width="170" height="125" as="geometry" />
        </mxCell>
        <mxCell id="6PUvuGZ2wXyR1hlxx6MD-1" value="Saves Upsert Action in a manner that allows it to be rerun." style="points=[[0.25,0,0],[0.5,0,0],[0.75,0,0],[1,0.25,0],[1,0.5,0],[1,0.75,0],[0.75,1,0],[0.5,1,0],[0.25,1,0],[0,0.75,0],[0,0.5,0],[0,0.25,0]];shape=mxgraph.bpmn.task;whiteSpace=wrap;rectStyle=rounded;size=10;taskMarker=service;isLoopSub=1;" parent="1" vertex="1">
          <mxGeometry x="205" y="460" width="120" height="80" as="geometry" />
        </mxCell>
        <mxCell id="6PUvuGZ2wXyR1hlxx6MD-3" value="&lt;span style=&quot;background-color: rgb(248, 249, 250);&quot;&gt;Is the Vendor already on &lt;br&gt;MasterCompany template?&lt;/span&gt;" style="points=[[0.25,0.25,0],[0.5,0,0],[0.75,0.25,0],[1,0.5,0],[0.75,0.75,0],[0.5,1,0],[0.25,0.75,0],[0,0.5,0]];shape=mxgraph.bpmn.gateway2;html=1;verticalLabelPosition=bottom;labelBackgroundColor=#ffffff;verticalAlign=top;align=center;perimeter=rhombusPerimeter;outlineConnect=0;outline=none;symbol=none;" parent="1" vertex="1">
          <mxGeometry x="389" y="285" width="50" height="50" as="geometry" />
        </mxCell>
        <mxCell id="ozIcgDwb976uFlebvAfk-3" style="edgeStyle=orthogonalEdgeStyle;rounded=0;orthogonalLoop=1;jettySize=auto;html=1;entryX=0.5;entryY=1;entryDx=0;entryDy=0;entryPerimeter=0;" parent="1" source="6PUvuGZ2wXyR1hlxx6MD-8" target="ozIcgDwb976uFlebvAfk-1" edge="1">
          <mxGeometry relative="1" as="geometry" />
        </mxCell>
        <UserObject label="Update Vendor on BC365 Standard API&#xa;(Documentation linked)" link="https://docs.microsoft.com/en-us/dynamics365/business-central/dev-itpro/api-reference/v2.0/api/dynamics_vendor_update" linkTarget="_blank" id="6PUvuGZ2wXyR1hlxx6MD-8">
          <mxCell style="points=[[0.25,0,0],[0.5,0,0],[0.75,0,0],[1,0.25,0],[1,0.5,0],[1,0.75,0],[0.75,1,0],[0.5,1,0],[0.25,1,0],[0,0.75,0],[0,0.5,0],[0,0.25,0]];shape=mxgraph.bpmn.task;whiteSpace=wrap;rectStyle=rounded;size=10;taskMarker=send;fillColor=#ffe6cc;strokeColor=#d79b00;" parent="1" vertex="1">
            <mxGeometry x="480" y="410" width="140" height="120" as="geometry" />
          </mxCell>
        </UserObject>
        <mxCell id="ozIcgDwb976uFlebvAfk-1" value="" style="points=[[0.145,0.145,0],[0.5,0,0],[0.855,0.145,0],[1,0.5,0],[0.855,0.855,0],[0.5,1,0],[0.145,0.855,0],[0,0.5,0]];shape=mxgraph.bpmn.event;html=1;verticalLabelPosition=bottom;labelBackgroundColor=#ffffff;verticalAlign=top;align=center;perimeter=ellipsePerimeter;outlineConnect=0;aspect=fixed;outline=end;symbol=terminate;" parent="1" vertex="1">
          <mxGeometry x="650" y="357.5" width="50" height="50" as="geometry" />
        </mxCell>
      </root>
    </mxGraphModel>
  </diagram>
  <diagram id="ijkr_AI3cJ9d4mK-TOvW" name="Upsert Debitor">
    <mxGraphModel dx="1550" dy="835" grid="1" gridSize="10" guides="1" tooltips="1" connect="1" arrows="1" fold="1" page="1" pageScale="1" pageWidth="827" pageHeight="1169" math="0" shadow="0">
      <root>
        <mxCell id="0" />
        <mxCell id="1" parent="0" />
        <mxCell id="hngTgybiRzsHFCpFLKwW-3" value="" style="edgeStyle=orthogonalEdgeStyle;rounded=0;orthogonalLoop=1;jettySize=auto;html=1;entryX=0;entryY=0.5;entryDx=0;entryDy=0;entryPerimeter=0;exitX=1;exitY=0.5;exitDx=0;exitDy=0;exitPerimeter=0;" edge="1" parent="1" source="pza1siKaB4rs9dqygMb9-3" target="CaX6wEhDzHVtHg32PIAQ-3">
          <mxGeometry relative="1" as="geometry">
            <mxPoint x="460" y="287.5" as="sourcePoint" />
          </mxGeometry>
        </mxCell>
        <mxCell id="hngTgybiRzsHFCpFLKwW-6" style="edgeStyle=orthogonalEdgeStyle;rounded=0;orthogonalLoop=1;jettySize=auto;html=1;entryX=0;entryY=0.5;entryDx=0;entryDy=0;entryPerimeter=0;" edge="1" parent="1" source="CaX6wEhDzHVtHg32PIAQ-3" target="CaX6wEhDzHVtHg32PIAQ-1">
          <mxGeometry relative="1" as="geometry" />
        </mxCell>
        <mxCell id="hngTgybiRzsHFCpFLKwW-7" value="NO" style="edgeLabel;html=1;align=center;verticalAlign=middle;resizable=0;points=[];" vertex="1" connectable="0" parent="hngTgybiRzsHFCpFLKwW-6">
          <mxGeometry x="-0.075" y="1" relative="1" as="geometry">
            <mxPoint as="offset" />
          </mxGeometry>
        </mxCell>
        <mxCell id="hngTgybiRzsHFCpFLKwW-8" value="" style="edgeStyle=orthogonalEdgeStyle;rounded=0;orthogonalLoop=1;jettySize=auto;html=1;exitX=0.5;exitY=1;exitDx=0;exitDy=0;exitPerimeter=0;entryX=0;entryY=0.5;entryDx=0;entryDy=0;entryPerimeter=0;" edge="1" parent="1" source="CaX6wEhDzHVtHg32PIAQ-3" target="CaX6wEhDzHVtHg32PIAQ-2">
          <mxGeometry relative="1" as="geometry">
            <mxPoint x="415" y="720" as="targetPoint" />
          </mxGeometry>
        </mxCell>
        <mxCell id="hngTgybiRzsHFCpFLKwW-9" value="YES" style="edgeLabel;html=1;align=center;verticalAlign=middle;resizable=0;points=[];" vertex="1" connectable="0" parent="hngTgybiRzsHFCpFLKwW-8">
          <mxGeometry x="-0.1625" y="-4" relative="1" as="geometry">
            <mxPoint as="offset" />
          </mxGeometry>
        </mxCell>
        <mxCell id="671X-w92twL298h70GdT-4" style="edgeStyle=orthogonalEdgeStyle;rounded=0;orthogonalLoop=1;jettySize=auto;html=1;entryX=0.5;entryY=0;entryDx=0;entryDy=0;entryPerimeter=0;" edge="1" parent="1" source="CaX6wEhDzHVtHg32PIAQ-1" target="671X-w92twL298h70GdT-1">
          <mxGeometry relative="1" as="geometry" />
        </mxCell>
        <UserObject label="Likely BC365 standard API - customers&#xa;(Documentation linked)" link="https://docs.microsoft.com/en-us/dynamics365/business-central/dev-itpro/api-reference/v2.0/api/dynamics_customer_create" linkTarget="_blank" id="CaX6wEhDzHVtHg32PIAQ-1">
          <mxCell style="points=[[0.25,0,0],[0.5,0,0],[0.75,0,0],[1,0.25,0],[1,0.5,0],[1,0.75,0],[0.75,1,0],[0.5,1,0],[0.25,1,0],[0,0.75,0],[0,0.5,0],[0,0.25,0]];shape=mxgraph.bpmn.task;whiteSpace=wrap;rectStyle=rounded;size=10;taskMarker=send;fillColor=#ffe6cc;strokeColor=#d79b00;" vertex="1" parent="1">
            <mxGeometry x="580" y="240" width="140" height="95" as="geometry" />
          </mxCell>
        </UserObject>
        <mxCell id="671X-w92twL298h70GdT-5" style="edgeStyle=orthogonalEdgeStyle;rounded=0;orthogonalLoop=1;jettySize=auto;html=1;" edge="1" parent="1" source="CaX6wEhDzHVtHg32PIAQ-2" target="671X-w92twL298h70GdT-1">
          <mxGeometry relative="1" as="geometry" />
        </mxCell>
        <UserObject label="Likely BC365 standard API - customers&#xa;(Documentation linked)" link="https://docs.microsoft.com/en-us/dynamics365/business-central/dev-itpro/api-reference/v2.0/api/dynamics_customer_update" linkTarget="_blank" id="CaX6wEhDzHVtHg32PIAQ-2">
          <mxCell style="points=[[0.25,0,0],[0.5,0,0],[0.75,0,0],[1,0.25,0],[1,0.5,0],[1,0.75,0],[0.75,1,0],[0.5,1,0],[0.25,1,0],[0,0.75,0],[0,0.5,0],[0,0.25,0]];shape=mxgraph.bpmn.task;whiteSpace=wrap;rectStyle=rounded;size=10;taskMarker=send;fillColor=#ffe6cc;strokeColor=#d79b00;" vertex="1" parent="1">
            <mxGeometry x="580" y="360" width="140" height="95" as="geometry" />
          </mxCell>
        </UserObject>
        <mxCell id="CaX6wEhDzHVtHg32PIAQ-3" value="&lt;span style=&quot;background-color: rgb(248, 249, 250);&quot;&gt;Is the Debitor already on &lt;br&gt;the MasterCompany OGH?&lt;/span&gt;" style="points=[[0.25,0.25,0],[0.5,0,0],[0.75,0.25,0],[1,0.5,0],[0.75,0.75,0],[0.5,1,0],[0.25,0.75,0],[0,0.5,0]];shape=mxgraph.bpmn.gateway2;html=1;verticalLabelPosition=bottom;labelBackgroundColor=#ffffff;verticalAlign=top;align=center;perimeter=rhombusPerimeter;outlineConnect=0;outline=none;symbol=none;" vertex="1" parent="1">
          <mxGeometry x="470" y="262.5" width="50" height="50" as="geometry" />
        </mxCell>
        <mxCell id="EzWk68tIbZs5tfeaFgJN-3" value="YES" style="edgeStyle=orthogonalEdgeStyle;rounded=0;orthogonalLoop=1;jettySize=auto;html=1;entryX=0;entryY=0.5;entryDx=0;entryDy=0;entryPerimeter=0;" edge="1" parent="1" source="dbWorPUHvzAmHqFOaRAx-1" target="pza1siKaB4rs9dqygMb9-3">
          <mxGeometry relative="1" as="geometry">
            <mxPoint x="320" y="287.5" as="targetPoint" />
            <Array as="points" />
          </mxGeometry>
        </mxCell>
        <mxCell id="dbWorPUHvzAmHqFOaRAx-1" value="Has &quot;Last Modified&quot; for Company in&amp;nbsp;&lt;br&gt;&lt;span style=&quot;background-color: rgb(248, 249, 250);&quot;&gt;[ObtonData].[LINK].[tblCompanies] &lt;br&gt;changed since last run?&lt;br&gt;&lt;br&gt;Possibly something extra.&lt;br&gt;&lt;/span&gt;" style="points=[[0.25,0.25,0],[0.5,0,0],[0.75,0.25,0],[1,0.5,0],[0.75,0.75,0],[0.5,1,0],[0.25,0.75,0],[0,0.5,0]];shape=mxgraph.bpmn.gateway2;html=1;verticalLabelPosition=bottom;labelBackgroundColor=#ffffff;verticalAlign=top;align=center;perimeter=rhombusPerimeter;outlineConnect=0;outline=none;symbol=none;fillColor=#ffe6cc;strokeColor=#d79b00;" vertex="1" parent="1">
          <mxGeometry x="170" y="262.5" width="50" height="50" as="geometry" />
        </mxCell>
        <mxCell id="EzWk68tIbZs5tfeaFgJN-6" style="edgeStyle=orthogonalEdgeStyle;rounded=0;orthogonalLoop=1;jettySize=auto;html=1;" edge="1" parent="1" source="EzWk68tIbZs5tfeaFgJN-1" target="dbWorPUHvzAmHqFOaRAx-1">
          <mxGeometry relative="1" as="geometry" />
        </mxCell>
        <mxCell id="EzWk68tIbZs5tfeaFgJN-1" value="Data needs to come from multiple tables" style="points=[[0.25,0,0],[0.5,0,0],[0.75,0,0],[1,0.25,0],[1,0.5,0],[1,0.75,0],[0.75,1,0],[0.5,1,0],[0.25,1,0],[0,0.75,0],[0,0.5,0],[0,0.25,0]];shape=mxgraph.bpmn.task;whiteSpace=wrap;rectStyle=rounded;size=10;bpmnShapeType=call;taskMarker=manual;fillColor=#f8cecc;strokeColor=#b85450;" vertex="1" parent="1">
          <mxGeometry x="135" y="130" width="120" height="80" as="geometry" />
        </mxCell>
        <mxCell id="pza1siKaB4rs9dqygMb9-2" style="edgeStyle=orthogonalEdgeStyle;rounded=0;orthogonalLoop=1;jettySize=auto;html=1;" edge="1" parent="1" source="pza1siKaB4rs9dqygMb9-1" target="dbWorPUHvzAmHqFOaRAx-1">
          <mxGeometry relative="1" as="geometry" />
        </mxCell>
        <mxCell id="pza1siKaB4rs9dqygMb9-1" value="" style="points=[[0.145,0.145,0],[0.5,0,0],[0.855,0.145,0],[1,0.5,0],[0.855,0.855,0],[0.5,1,0],[0.145,0.855,0],[0,0.5,0]];shape=mxgraph.bpmn.event;html=1;verticalLabelPosition=bottom;labelBackgroundColor=#ffffff;verticalAlign=top;align=center;perimeter=ellipsePerimeter;outlineConnect=0;aspect=fixed;outline=eventNonint;symbol=timer;" vertex="1" parent="1">
          <mxGeometry x="50" y="262.5" width="50" height="50" as="geometry" />
        </mxCell>
        <mxCell id="pza1siKaB4rs9dqygMb9-3" value="Upsert Debitor (Company) on the MasterCompany OGH on the OGH Tenant" style="points=[[0.25,0,0],[0.5,0,0],[0.75,0,0],[1,0.25,0],[1,0.5,0],[1,0.75,0],[0.75,1,0],[0.5,1,0],[0.25,1,0],[0,0.75,0],[0,0.5,0],[0,0.25,0]];shape=mxgraph.bpmn.task;whiteSpace=wrap;rectStyle=rounded;size=10;taskMarker=service;" vertex="1" parent="1">
          <mxGeometry x="300" y="247.5" width="120" height="80" as="geometry" />
        </mxCell>
        <mxCell id="671X-w92twL298h70GdT-1" value="" style="points=[[0.145,0.145,0],[0.5,0,0],[0.855,0.145,0],[1,0.5,0],[0.855,0.855,0],[0.5,1,0],[0.145,0.855,0],[0,0.5,0]];shape=mxgraph.bpmn.event;html=1;verticalLabelPosition=bottom;labelBackgroundColor=#ffffff;verticalAlign=top;align=center;perimeter=ellipsePerimeter;outlineConnect=0;aspect=fixed;outline=end;symbol=terminate;" vertex="1" parent="1">
          <mxGeometry x="750" y="327.5" width="50" height="50" as="geometry" />
        </mxCell>
      </root>
    </mxGraphModel>
  </diagram>
  <diagram id="u8kHqaSmHwFOLIfAbiyG" name="Upsert BankAccount">
    <mxGraphModel dx="1550" dy="835" grid="1" gridSize="10" guides="1" tooltips="1" connect="1" arrows="1" fold="1" page="1" pageScale="1" pageWidth="827" pageHeight="1169" math="0" shadow="0">
      <root>
        <mxCell id="0" />
        <mxCell id="1" parent="0" />
        <mxCell id="MOmmQpUYmyzGICo6XZop-2" value="YES" style="edgeStyle=orthogonalEdgeStyle;rounded=0;orthogonalLoop=1;jettySize=auto;html=1;" edge="1" parent="1" source="3D2gPNnIzBvrmEw4ZCjW-1" target="MOmmQpUYmyzGICo6XZop-1">
          <mxGeometry relative="1" as="geometry" />
        </mxCell>
        <mxCell id="3D2gPNnIzBvrmEw4ZCjW-1" value="Has &quot;Last Modified&quot; for Bank Account in&amp;nbsp;&lt;br&gt;&lt;span style=&quot;background-color: rgb(248, 249, 250);&quot;&gt;[ObtonData].[LINK].[tblBankAccounts]&lt;/span&gt;&lt;span style=&quot;background-color: rgb(248, 249, 250);&quot;&gt;&lt;br&gt;changed since last run?&lt;br&gt;&lt;/span&gt;" style="points=[[0.25,0.25,0],[0.5,0,0],[0.75,0.25,0],[1,0.5,0],[0.75,0.75,0],[0.5,1,0],[0.25,0.75,0],[0,0.5,0]];shape=mxgraph.bpmn.gateway2;html=1;verticalLabelPosition=bottom;labelBackgroundColor=#ffffff;verticalAlign=top;align=center;perimeter=rhombusPerimeter;outlineConnect=0;outline=none;symbol=none;fillColor=#ffe6cc;strokeColor=#d79b00;" vertex="1" parent="1">
          <mxGeometry x="160" y="252.5" width="50" height="50" as="geometry" />
        </mxCell>
        <mxCell id="3D2gPNnIzBvrmEw4ZCjW-5" style="edgeStyle=orthogonalEdgeStyle;rounded=0;orthogonalLoop=1;jettySize=auto;html=1;entryX=0.5;entryY=0;entryDx=0;entryDy=0;entryPerimeter=0;" edge="1" parent="1" source="3D2gPNnIzBvrmEw4ZCjW-2" target="3D2gPNnIzBvrmEw4ZCjW-1">
          <mxGeometry relative="1" as="geometry" />
        </mxCell>
        <mxCell id="3D2gPNnIzBvrmEw4ZCjW-2" value="The tblBankAccounts will be changed." style="points=[[0.25,0,0],[0.5,0,0],[0.75,0,0],[1,0.25,0],[1,0.5,0],[1,0.75,0],[0.75,1,0],[0.5,1,0],[0.25,1,0],[0,0.75,0],[0,0.5,0],[0,0.25,0]];shape=mxgraph.bpmn.task;whiteSpace=wrap;rectStyle=rounded;size=10;bpmnShapeType=call;taskMarker=manual;fillColor=#f8cecc;strokeColor=#b85450;" vertex="1" parent="1">
          <mxGeometry x="125" y="100" width="120" height="80" as="geometry" />
        </mxCell>
        <mxCell id="3D2gPNnIzBvrmEw4ZCjW-4" style="edgeStyle=orthogonalEdgeStyle;rounded=0;orthogonalLoop=1;jettySize=auto;html=1;entryX=0;entryY=0.5;entryDx=0;entryDy=0;entryPerimeter=0;" edge="1" parent="1" source="3D2gPNnIzBvrmEw4ZCjW-3" target="3D2gPNnIzBvrmEw4ZCjW-1">
          <mxGeometry relative="1" as="geometry" />
        </mxCell>
        <mxCell id="3D2gPNnIzBvrmEw4ZCjW-3" value="" style="points=[[0.145,0.145,0],[0.5,0,0],[0.855,0.145,0],[1,0.5,0],[0.855,0.855,0],[0.5,1,0],[0.145,0.855,0],[0,0.5,0]];shape=mxgraph.bpmn.event;html=1;verticalLabelPosition=bottom;labelBackgroundColor=#ffffff;verticalAlign=top;align=center;perimeter=ellipsePerimeter;outlineConnect=0;aspect=fixed;outline=eventNonint;symbol=timer;" vertex="1" parent="1">
          <mxGeometry x="20" y="252.5" width="50" height="50" as="geometry" />
        </mxCell>
        <mxCell id="MOmmQpUYmyzGICo6XZop-4" style="edgeStyle=orthogonalEdgeStyle;rounded=0;orthogonalLoop=1;jettySize=auto;html=1;" edge="1" parent="1" source="MOmmQpUYmyzGICo6XZop-1" target="MOmmQpUYmyzGICo6XZop-3">
          <mxGeometry relative="1" as="geometry" />
        </mxCell>
        <mxCell id="MOmmQpUYmyzGICo6XZop-1" value="Find Company BC365 ID&#xa;&#xa;[BankAccounts_AccountOwnerID] matches [Companies_Id]inÂ [ObtonData].[LINK].[tblCompanies]" style="points=[[0.25,0,0],[0.5,0,0],[0.75,0,0],[1,0.25,0],[1,0.5,0],[1,0.75,0],[0.75,1,0],[0.5,1,0],[0.25,1,0],[0,0.75,0],[0,0.5,0],[0,0.25,0]];shape=mxgraph.bpmn.task;whiteSpace=wrap;rectStyle=rounded;size=10;taskMarker=service;" vertex="1" parent="1">
          <mxGeometry x="340" y="211.25" width="200" height="132.5" as="geometry" />
        </mxCell>
        <mxCell id="MOmmQpUYmyzGICo6XZop-3" value="OBT-84 âAPI til Bankkontooprettelse og vedligeholdâ&#xa;(afventer leveringsdato)" style="points=[[0.25,0,0],[0.5,0,0],[0.75,0,0],[1,0.25,0],[1,0.5,0],[1,0.75,0],[0.75,1,0],[0.5,1,0],[0.25,1,0],[0,0.75,0],[0,0.5,0],[0,0.25,0]];shape=mxgraph.bpmn.task;whiteSpace=wrap;rectStyle=rounded;size=10;taskMarker=send;fillColor=#f8cecc;strokeColor=#b85450;" vertex="1" parent="1">
          <mxGeometry x="600" y="233.13" width="150" height="88.75" as="geometry" />
        </mxCell>
      </root>
    </mxGraphModel>
  </diagram>
  <diagram id="HDtiJvWEX0RPNTuk2t3R" name="Liability Allowance - AS IS">
    <mxGraphModel dx="1550" dy="2004" grid="1" gridSize="10" guides="1" tooltips="1" connect="1" arrows="1" fold="1" page="1" pageScale="1" pageWidth="827" pageHeight="1169" math="0" shadow="0">
      <root>
        <mxCell id="0" />
        <mxCell id="1" parent="0" />
        <mxCell id="8iHLkbss_IxewxaRkSr7-3" value="" style="edgeStyle=orthogonalEdgeStyle;rounded=0;orthogonalLoop=1;jettySize=auto;html=1;" edge="1" parent="1" source="8iHLkbss_IxewxaRkSr7-1" target="8iHLkbss_IxewxaRkSr7-2">
          <mxGeometry relative="1" as="geometry" />
        </mxCell>
        <UserObject label="Starts on Operations Libility Allowance" link="https://operations2.obton.com/liabilityallowance" id="8iHLkbss_IxewxaRkSr7-1">
          <mxCell style="points=[[0.25,0,0],[0.5,0,0],[0.75,0,0],[1,0.25,0],[1,0.5,0],[1,0.75,0],[0.75,1,0],[0.5,1,0],[0.25,1,0],[0,0.75,0],[0,0.5,0],[0,0.25,0]];shape=mxgraph.bpmn.task;whiteSpace=wrap;rectStyle=rounded;size=10;taskMarker=abstract;" vertex="1" parent="1">
            <mxGeometry x="80" y="140" width="120" height="80" as="geometry" />
          </mxCell>
        </UserObject>
        <mxCell id="8iHLkbss_IxewxaRkSr7-14" value="" style="edgeStyle=orthogonalEdgeStyle;rounded=0;orthogonalLoop=1;jettySize=auto;html=1;" edge="1" parent="1" source="8iHLkbss_IxewxaRkSr7-2" target="8iHLkbss_IxewxaRkSr7-13">
          <mxGeometry relative="1" as="geometry" />
        </mxCell>
        <mxCell id="8iHLkbss_IxewxaRkSr7-2" value="Company Management Support starts the flow" style="whiteSpace=wrap;html=1;" vertex="1" parent="1">
          <mxGeometry x="280" y="150" width="120" height="60" as="geometry" />
        </mxCell>
        <mxCell id="8iHLkbss_IxewxaRkSr7-9" value="" style="edgeStyle=orthogonalEdgeStyle;rounded=0;orthogonalLoop=1;jettySize=auto;html=1;" edge="1" parent="1" source="8iHLkbss_IxewxaRkSr7-4" target="8iHLkbss_IxewxaRkSr7-8">
          <mxGeometry relative="1" as="geometry" />
        </mxCell>
        <mxCell id="8iHLkbss_IxewxaRkSr7-4" value="Opretter bogfÃ¸ringslinjer imellem alle selskaber" style="whiteSpace=wrap;html=1;" vertex="1" parent="1">
          <mxGeometry x="480" y="150" width="120" height="60" as="geometry" />
        </mxCell>
        <mxCell id="8iHLkbss_IxewxaRkSr7-6" value="BogfÃ¸rer gennem standard BC365 API" style="whiteSpace=wrap;html=1;fillColor=#f5f5f5;fontColor=#333333;strokeColor=#666666;" vertex="1" parent="1">
          <mxGeometry x="480" y="400" width="120" height="60" as="geometry" />
        </mxCell>
        <mxCell id="8iHLkbss_IxewxaRkSr7-10" style="edgeStyle=orthogonalEdgeStyle;rounded=0;orthogonalLoop=1;jettySize=auto;html=1;" edge="1" parent="1" source="8iHLkbss_IxewxaRkSr7-8" target="8iHLkbss_IxewxaRkSr7-6">
          <mxGeometry relative="1" as="geometry" />
        </mxCell>
        <mxCell id="8iHLkbss_IxewxaRkSr7-8" value="Generer PDF" style="whiteSpace=wrap;html=1;" vertex="1" parent="1">
          <mxGeometry x="480" y="290" width="120" height="60" as="geometry" />
        </mxCell>
        <mxCell id="8iHLkbss_IxewxaRkSr7-16" style="edgeStyle=orthogonalEdgeStyle;rounded=0;orthogonalLoop=1;jettySize=auto;html=1;entryX=0;entryY=0.5;entryDx=0;entryDy=0;" edge="1" parent="1" source="8iHLkbss_IxewxaRkSr7-13" target="8iHLkbss_IxewxaRkSr7-4">
          <mxGeometry relative="1" as="geometry" />
        </mxCell>
        <mxCell id="8iHLkbss_IxewxaRkSr7-44" value="" style="edgeStyle=orthogonalEdgeStyle;rounded=0;orthogonalLoop=1;jettySize=auto;html=1;" edge="1" parent="1" source="8iHLkbss_IxewxaRkSr7-13" target="8iHLkbss_IxewxaRkSr7-43">
          <mxGeometry relative="1" as="geometry" />
        </mxCell>
        <mxCell id="8iHLkbss_IxewxaRkSr7-13" value="Systemet tjekker om det er gjort fÃ¸r, og tilbagekÃ¸rer det hvis det er kÃ¸rt fÃ¸r automatisk." style="whiteSpace=wrap;html=1;" vertex="1" parent="1">
          <mxGeometry x="275" y="290" width="130" height="80" as="geometry" />
        </mxCell>
        <mxCell id="8iHLkbss_IxewxaRkSr7-23" style="edgeStyle=orthogonalEdgeStyle;rounded=0;orthogonalLoop=1;jettySize=auto;html=1;" edge="1" parent="1" source="8iHLkbss_IxewxaRkSr7-21" target="8iHLkbss_IxewxaRkSr7-22">
          <mxGeometry relative="1" as="geometry" />
        </mxCell>
        <mxCell id="8iHLkbss_IxewxaRkSr7-31" value="" style="edgeStyle=orthogonalEdgeStyle;rounded=0;orthogonalLoop=1;jettySize=auto;html=1;" edge="1" parent="1" source="8iHLkbss_IxewxaRkSr7-21" target="8iHLkbss_IxewxaRkSr7-30">
          <mxGeometry relative="1" as="geometry" />
        </mxCell>
        <mxCell id="8iHLkbss_IxewxaRkSr7-36" value="" style="edgeStyle=orthogonalEdgeStyle;rounded=0;orthogonalLoop=1;jettySize=auto;html=1;" edge="1" parent="1" source="8iHLkbss_IxewxaRkSr7-21" target="8iHLkbss_IxewxaRkSr7-35">
          <mxGeometry relative="1" as="geometry" />
        </mxCell>
        <mxCell id="8iHLkbss_IxewxaRkSr7-21" value="Finder Companies + BankAccounts + andet data" style="points=[[0.25,0,0],[0.5,0,0],[0.75,0,0],[1,0.25,0],[1,0.5,0],[1,0.75,0],[0.75,1,0],[0.5,1,0],[0.25,1,0],[0,0.75,0],[0,0.5,0],[0,0.25,0]];shape=mxgraph.bpmn.task;whiteSpace=wrap;rectStyle=rounded;size=10;taskMarker=abstract;fillColor=#f5f5f5;strokeColor=#666666;fontColor=#333333;" vertex="1" parent="1">
          <mxGeometry x="370" y="480" width="120" height="80" as="geometry" />
        </mxCell>
        <mxCell id="8iHLkbss_IxewxaRkSr7-25" value="" style="edgeStyle=orthogonalEdgeStyle;rounded=0;orthogonalLoop=1;jettySize=auto;html=1;" edge="1" parent="1" source="8iHLkbss_IxewxaRkSr7-22" target="8iHLkbss_IxewxaRkSr7-24">
          <mxGeometry relative="1" as="geometry" />
        </mxCell>
        <mxCell id="8iHLkbss_IxewxaRkSr7-27" value="" style="edgeStyle=orthogonalEdgeStyle;rounded=0;orthogonalLoop=1;jettySize=auto;html=1;" edge="1" parent="1" source="8iHLkbss_IxewxaRkSr7-22" target="8iHLkbss_IxewxaRkSr7-26">
          <mxGeometry relative="1" as="geometry" />
        </mxCell>
        <mxCell id="alK8zymxxNSuhV6gB3wu-2" value="" style="edgeStyle=orthogonalEdgeStyle;rounded=0;orthogonalLoop=1;jettySize=auto;html=1;" edge="1" parent="1" source="8iHLkbss_IxewxaRkSr7-22" target="alK8zymxxNSuhV6gB3wu-1">
          <mxGeometry relative="1" as="geometry" />
        </mxCell>
        <mxCell id="8iHLkbss_IxewxaRkSr7-22" value="Gemmer i Journal Entries" style="points=[[0.25,0,0],[0.5,0,0],[0.75,0,0],[1,0.25,0],[1,0.5,0],[1,0.75,0],[0.75,1,0],[0.5,1,0],[0.25,1,0],[0,0.75,0],[0,0.5,0],[0,0.25,0]];shape=mxgraph.bpmn.task;whiteSpace=wrap;rectStyle=rounded;size=10;taskMarker=abstract;fillColor=#f5f5f5;fontColor=#333333;strokeColor=#666666;" vertex="1" parent="1">
          <mxGeometry x="590" y="480" width="120" height="80" as="geometry" />
        </mxCell>
        <mxCell id="8iHLkbss_IxewxaRkSr7-24" value="Trigger bogfÃ¸ring" style="whiteSpace=wrap;html=1;fillColor=#f5f5f5;strokeColor=#666666;fontColor=#333333;" vertex="1" parent="1">
          <mxGeometry x="590" y="650" width="120" height="60" as="geometry" />
        </mxCell>
        <mxCell id="8iHLkbss_IxewxaRkSr7-26" value="&lt;p class=&quot;MsoNormal&quot;&gt;OBT-93 âAPI til finanskladdebogfÃ¸ring â Udvidelseâ â Leveres&lt;br/&gt;primo uge 19&lt;/p&gt;" style="whiteSpace=wrap;html=1;fillColor=#f8cecc;strokeColor=#b85450;" vertex="1" parent="1">
          <mxGeometry x="790" y="475" width="140" height="90" as="geometry" />
        </mxCell>
        <mxCell id="8iHLkbss_IxewxaRkSr7-30" value="Skal bruge Company Hub" style="rounded=1;whiteSpace=wrap;html=1;fillColor=#f8cecc;strokeColor=#b85450;" vertex="1" parent="1">
          <mxGeometry x="170" y="490" width="120" height="60" as="geometry" />
        </mxCell>
        <mxCell id="8iHLkbss_IxewxaRkSr7-35" value="funcBC365" style="points=[[0.25,0,0],[0.5,0,0],[0.75,0,0],[1,0.25,0],[1,0.5,0],[1,0.75,0],[0.75,1,0],[0.5,1,0],[0.25,1,0],[0,0.75,0],[0,0.5,0],[0,0.25,0]];shape=mxgraph.bpmn.task;whiteSpace=wrap;rectStyle=rounded;size=10;taskMarker=abstract;fillColor=#f8cecc;strokeColor=#b85450;" vertex="1" parent="1">
          <mxGeometry x="370" y="640" width="120" height="80" as="geometry" />
        </mxCell>
        <mxCell id="8iHLkbss_IxewxaRkSr7-40" style="edgeStyle=orthogonalEdgeStyle;rounded=0;orthogonalLoop=1;jettySize=auto;html=1;" edge="1" parent="1" source="8iHLkbss_IxewxaRkSr7-39" target="8iHLkbss_IxewxaRkSr7-1">
          <mxGeometry relative="1" as="geometry" />
        </mxCell>
        <mxCell id="8iHLkbss_IxewxaRkSr7-39" value="Levere BC365 data til view&#xa;&#xa;C# pipeline data projekt ish" style="points=[[0.25,0,0],[0.5,0,0],[0.75,0,0],[1,0.25,0],[1,0.5,0],[1,0.75,0],[0.75,1,0],[0.5,1,0],[0.25,1,0],[0,0.75,0],[0,0.5,0],[0,0.25,0]];shape=mxgraph.bpmn.task;whiteSpace=wrap;rectStyle=rounded;size=10;taskMarker=abstract;fillColor=#f8cecc;strokeColor=#b85450;" vertex="1" parent="1">
          <mxGeometry x="80" y="-20" width="120" height="80" as="geometry" />
        </mxCell>
        <mxCell id="8iHLkbss_IxewxaRkSr7-43" value="ffÃ¥r data fra BC365" style="whiteSpace=wrap;html=1;fillColor=#f8cecc;strokeColor=#b85450;" vertex="1" parent="1">
          <mxGeometry x="65" y="290" width="130" height="80" as="geometry" />
        </mxCell>
        <mxCell id="alK8zymxxNSuhV6gB3wu-1" value="ForudsÃ¦tning - der findes en journal med ID&#39;et &quot;AUTO&quot; som er sat rigtigt op - CSS (rigtigt)" style="whiteSpace=wrap;html=1;fillColor=#f8cecc;strokeColor=#b85450;" vertex="1" parent="1">
          <mxGeometry x="690" y="290" width="140" height="70" as="geometry" />
        </mxCell>
      </root>
    </mxGraphModel>
  </diagram>
  <diagram id="QrHfUECywbq4jXKsKu2G" name="Error Handling">
    <mxGraphModel dx="1550" dy="835" grid="1" gridSize="10" guides="1" tooltips="1" connect="1" arrows="1" fold="1" page="1" pageScale="1" pageWidth="827" pageHeight="1169" math="0" shadow="0">
      <root>
        <mxCell id="0" />
        <mxCell id="1" parent="0" />
        <mxCell id="9kpr36j9GcE0RhkCyM9n-1" style="edgeStyle=orthogonalEdgeStyle;rounded=0;orthogonalLoop=1;jettySize=auto;html=1;" edge="1" parent="1" source="9kpr36j9GcE0RhkCyM9n-2" target="9kpr36j9GcE0RhkCyM9n-8">
          <mxGeometry relative="1" as="geometry" />
        </mxCell>
        <mxCell id="9kpr36j9GcE0RhkCyM9n-2" value="Obton BC365 checks Error List" style="points=[[0.25,0,0],[0.5,0,0],[0.75,0,0],[1,0.25,0],[1,0.5,0],[1,0.75,0],[0.75,1,0],[0.5,1,0],[0.25,1,0],[0,0.75,0],[0,0.5,0],[0,0.25,0]];shape=mxgraph.bpmn.task;whiteSpace=wrap;rectStyle=rounded;size=10;bpmnShapeType=call;taskMarker=manual;fillColor=#f8cecc;strokeColor=#b85450;" vertex="1" parent="1">
          <mxGeometry x="140" y="110" width="120" height="80" as="geometry" />
        </mxCell>
        <mxCell id="9kpr36j9GcE0RhkCyM9n-3" style="edgeStyle=orthogonalEdgeStyle;rounded=0;orthogonalLoop=1;jettySize=auto;html=1;" edge="1" parent="1" source="9kpr36j9GcE0RhkCyM9n-4" target="9kpr36j9GcE0RhkCyM9n-2">
          <mxGeometry relative="1" as="geometry" />
        </mxCell>
        <mxCell id="9kpr36j9GcE0RhkCyM9n-4" value="" style="points=[[0.145,0.145,0],[0.5,0,0],[0.855,0.145,0],[1,0.5,0],[0.855,0.855,0],[0.5,1,0],[0.145,0.855,0],[0,0.5,0]];shape=mxgraph.bpmn.event;html=1;verticalLabelPosition=bottom;labelBackgroundColor=#ffffff;verticalAlign=top;align=center;perimeter=ellipsePerimeter;outlineConnect=0;aspect=fixed;outline=eventNonint;symbol=timer;" vertex="1" parent="1">
          <mxGeometry x="20" y="125" width="50" height="50" as="geometry" />
        </mxCell>
        <mxCell id="9kpr36j9GcE0RhkCyM9n-5" value="YES" style="edgeStyle=orthogonalEdgeStyle;rounded=0;orthogonalLoop=1;jettySize=auto;html=1;" edge="1" parent="1" source="9kpr36j9GcE0RhkCyM9n-8" target="9kpr36j9GcE0RhkCyM9n-9">
          <mxGeometry relative="1" as="geometry" />
        </mxCell>
        <mxCell id="9kpr36j9GcE0RhkCyM9n-6" style="edgeStyle=orthogonalEdgeStyle;rounded=0;orthogonalLoop=1;jettySize=auto;html=1;" edge="1" parent="1" source="9kpr36j9GcE0RhkCyM9n-8" target="9kpr36j9GcE0RhkCyM9n-10">
          <mxGeometry relative="1" as="geometry" />
        </mxCell>
        <mxCell id="9kpr36j9GcE0RhkCyM9n-7" value="NO" style="edgeLabel;html=1;align=center;verticalAlign=middle;resizable=0;points=[];" vertex="1" connectable="0" parent="9kpr36j9GcE0RhkCyM9n-6">
          <mxGeometry x="0.1733" relative="1" as="geometry">
            <mxPoint as="offset" />
          </mxGeometry>
        </mxCell>
        <mxCell id="9kpr36j9GcE0RhkCyM9n-8" value="Is error list empty?" style="points=[[0.25,0.25,0],[0.5,0,0],[0.75,0.25,0],[1,0.5,0],[0.75,0.75,0],[0.5,1,0],[0.25,0.75,0],[0,0.5,0]];shape=mxgraph.bpmn.gateway2;html=1;verticalLabelPosition=bottom;labelBackgroundColor=#ffffff;verticalAlign=top;align=center;perimeter=rhombusPerimeter;outlineConnect=0;outline=none;symbol=none;" vertex="1" parent="1">
          <mxGeometry x="360" y="125" width="50" height="50" as="geometry" />
        </mxCell>
        <mxCell id="9kpr36j9GcE0RhkCyM9n-9" value="" style="points=[[0.145,0.145,0],[0.5,0,0],[0.855,0.145,0],[1,0.5,0],[0.855,0.855,0],[0.5,1,0],[0.145,0.855,0],[0,0.5,0]];shape=mxgraph.bpmn.event;html=1;verticalLabelPosition=bottom;labelBackgroundColor=#ffffff;verticalAlign=top;align=center;perimeter=ellipsePerimeter;outlineConnect=0;aspect=fixed;outline=end;symbol=terminate;" vertex="1" parent="1">
          <mxGeometry x="510" y="125" width="50" height="50" as="geometry" />
        </mxCell>
        <mxCell id="9kpr36j9GcE0RhkCyM9n-10" value="WAT DO?" style="points=[[0.25,0,0],[0.5,0,0],[0.75,0,0],[1,0.25,0],[1,0.5,0],[1,0.75,0],[0.75,1,0],[0.5,1,0],[0.25,1,0],[0,0.75,0],[0,0.5,0],[0,0.25,0]];shape=mxgraph.bpmn.task;whiteSpace=wrap;rectStyle=rounded;size=10;bpmnShapeType=call;taskMarker=manual;fillColor=#f8cecc;strokeColor=#b85450;" vertex="1" parent="1">
          <mxGeometry x="325" y="295" width="120" height="80" as="geometry" />
        </mxCell>
      </root>
    </mxGraphModel>
  </diagram>
</mxfile>
